<?xml version="1.0" encoding="UTF-8"?>
<svg viewBox="0 0 318 70" width="318" height="70" xmlns="http://www.w3.org/2000/svg" xmlns:xlink="http://www.w3.org/1999/xlink">
	<linearGradient id="a" gradientUnits="userSpaceOnUse" x1="-113.8594" x2="113.8594" y1="162.6079" y2="-162.6081">
		<stop offset="0" stop-color="#283274"/>
		<stop offset=".7088" stop-color="#283375"/>
		<stop offset=".967" stop-color="#273f88"/>
	</linearGradient>
	<linearGradient id="b" gradientUnits="userSpaceOnUse" x1="-109.1797" x2="5.1006" y1="156.1684" y2="-7.0408">
		<stop offset="0" stop-color="#bfc8e6"/>
		<stop offset=".0772" stop-color="#b6bedd"/>
		<stop offset=".2039" stop-color="#9fa4c9"/>
		<stop offset=".3642" stop-color="#7f82ae"/>
		<stop offset=".5519" stop-color="#585c92"/>
		<stop offset=".7582" stop-color="#283375"/>
	</linearGradient>
	<g id="icon" transform="matrix(.16386290025 0 0 -.16386287048 34.99990975 35.000090944)">
		<path d="m198.491 0c0-109.624-88.866-198.49-198.491-198.49-109.623 0-198.49 88.866-198.49 198.49 0 109.623 88.867 198.491 198.49 198.491 109.625 0 198.491-88.868 198.491-198.491z" fill="url(#a)" stroke="#5d6aa5" stroke-width="18"/>
		<path d="m.543 190.26c50.3-.373 104.324-20.494 143.335-66.953-1.66-39.852-72.986-80.704-132.511-125.68-49.945-37.738-126.373-73.128-178.643-87.032-49.698 95.152-13.55 186.622 48.772 238.038 29.158 25.513 73.097 41.968 119.047 41.627z" fill="url(#b)"/>
		<path d="m107.395-49.37c0-16.763-5.9-31.045-17.694-42.839-11.801-11.801-26.076-17.694-42.839-17.694h-72.175c-16.764 0-31.046 5.894-42.84 17.694-11.801 11.794-17.694 26.076-17.694 42.839v181.137c12.856 0 23.827-6.287 32.923-18.859 9.094-12.572 13.642-27.706 13.642-45.4v-116.878c0-9.312 4.656-13.969 13.97-13.969h72.175c9.312 0 13.969 4.656 13.969 13.969v55.412c0 9-4.656 13.656-13.969 13.97h-13.97c-18.007.626-33.221 5.326-45.633 14.107-12.42 8.774-18.626 19.594-18.626 32.457h78.229c16.763 0 31.038-5.901 42.839-17.694 11.794-11.801 17.694-26.076 17.694-42.84v-55.412z" fill="#757575"/>
		<path d="m103.971-51.741c0-16.763-5.9-31.045-17.694-42.839-11.801-11.801-26.076-17.694-42.839-17.694h-72.175c-16.763 0-31.045 5.894-42.839 17.694-11.801 11.794-17.694 26.076-17.694 42.839v181.136c12.856 0 23.828-6.287 32.922-18.859s13.642-27.706 13.642-45.4v-116.877c0-9.313 4.656-13.969 13.969-13.969h72.175c9.312 0 13.969 4.656 13.969 13.969v55.412c0 9-4.656 13.656-13.969 13.969h-13.97c-18.007.625-33.221 5.326-45.633 14.107-12.419 8.774-18.625 19.594-18.625 32.457h78.229c16.763 0 31.038-5.901 42.839-17.694 11.794-11.801 17.694-26.076 17.694-42.839v-55.412z" fill="#fff"/>
	</g>
	<g id="text" fill="#414141">
		<g transform="matrix(1.02366 0 0 1.01321 0 -1.55838)">
			<path d="m77.8509 52.5987c1.1585.1448 3.0049.3258 5.4667.3258 4.4893 0 7.3494-.7603 9.0872-2.2446 1.3757-1.1947 2.317-2.8963 2.317-5.0685 0-3.3308-2.3532-5.3582-4.9237-6.0099v-.1086c2.6429-.9775 4.0549-3.0049 4.0549-5.2495 0-2.0999-1.0138-3.6928-2.5343-4.5979-1.6292-1.1223-3.6928-1.5568-6.9511-1.5568-2.5343 0-5.1048.2534-6.5167.5431zm4.4168-21.0344c.4707-.1086 1.231-.181 2.5343-.181 2.8239 0 4.5617 1.0499 4.5617 3.3669 0 2.0636-1.7016 3.5118-4.8151 3.5118h-2.2809zm0 9.9198h2.2085c3.0773 0 5.5754 1.1585 5.5754 4.0186 0 3.005-2.5705 4.0549-5.4306 4.0549-1.0137 0-1.774 0-2.3533-.1086z"/>
			<path d="m102.976 52.6711v-17.6313h-4.4528v17.6313zm-2.208-24.9806c-1.4845 0-2.4982 1.0499-2.4982 2.4256 0 1.3034.9775 2.3895 2.4622 2.3895 1.556 0 2.534-1.0861 2.534-2.3895-.04-1.3757-.978-2.4256-2.498-2.4256z"/>
			<path d="m123.757 40.1084c0-2.4257.07-3.8738.145-5.0686h-3.874l-.181 2.3533h-.07c-.833-1.4482-2.39-2.7515-5.105-2.7515-4.236 0-8.001 3.5118-8.001 9.3044 0 4.9961 3.114 8.6165 7.494 8.6165 2.353 0 4.127-1.0499 5.141-2.6067h.07v1.5206c0 3.8014-2.173 5.3219-5.069 5.3219-2.136 0-4.019-.6878-5.141-1.3395l-.977 3.3669c1.52.9051 3.91 1.412 6.154 1.412 2.426 0 4.996-.5069 6.807-2.136 1.846-1.6654 2.606-4.3083 2.606-8.0011zm-4.453 4.8513c0 .5068-.04 1.1223-.181 1.5568-.507 1.6291-1.955 2.7152-3.62 2.7152-2.788 0-4.309-2.4256-4.309-5.4305 0-3.5842 1.847-5.7564 4.345-5.7564 1.883 0 3.15 1.2309 3.62 2.8601.109.362.145.7602.145 1.1947z"/>
			<path d="m128.717 52.5987c1.159.1448 3.005.3258 5.467.3258 4.489 0 7.349-.7603 9.087-2.2446 1.376-1.1947 2.317-2.8963 2.317-5.0685 0-3.3308-2.353-5.3582-4.924-6.0099v-.1086c2.643-.9775 4.055-3.0049 4.055-5.2495 0-2.0999-1.014-3.6928-2.534-4.5979-1.629-1.1223-3.693-1.5568-6.951-1.5568-2.534 0-5.105.2534-6.517.5431zm4.417-21.0344c.471-.1086 1.231-.181 2.534-.181 2.824 0 4.562 1.0499 4.562 3.3669 0 2.0636-1.702 3.5118-4.815 3.5118h-2.281zm0 9.9198h2.208c3.078 0 5.576 1.1585 5.576 4.0186 0 3.005-2.571 4.0549-5.431 4.0549-1.013 0-1.774 0-2.353-.1086z"/>
			<path d="m149.389 52.6711h4.453v-25.7047h-4.453z"/>
			<path d="m174.479 35.0398h-4.453v10.644c0 .5068-.07 1.0137-.254 1.3757-.434 1.1585-1.593 2.3895-3.403 2.3895-2.353 0-3.295-1.8826-3.295-4.8151v-9.5941h-4.453v10.3543c0 5.7564 2.933 7.6752 6.119 7.6752s4.924-1.8101 5.684-3.0411h.108l.218 2.6429h3.873c-.07-1.4482-.144-3.1859-.144-5.2858z"/>
			<path d="m194.246 45.1045c.07-.3982.145-1.0499.145-1.8826 0-3.8738-1.883-8.5803-7.603-8.5803-5.648 0-8.617 4.5979-8.617 9.4854 0 5.3944 3.367 8.9061 9.088 8.9061 2.534 0 4.634-.4706 6.154-1.1223l-.652-3.0411c-1.375.4707-2.823.7965-4.887.7965-2.86 0-5.322-1.3758-5.431-4.5617zm-11.803-3.1135c.181-1.8102 1.34-4.3083 4.091-4.3083 2.969 0 3.693 2.6791 3.657 4.3083z"/>
			<path d="m198.156 52.5987c1.158.1448 3.005.3258 5.467.3258 4.489 0 7.349-.7603 9.087-2.2446 1.375-1.1947 2.317-2.8963 2.317-5.0685 0-3.3308-2.353-5.3582-4.924-6.0099v-.1086c2.643-.9775 4.055-3.0049 4.055-5.2495 0-2.0999-1.014-3.6928-2.534-4.5979-1.63-1.1223-3.693-1.5568-6.951-1.5568-2.535 0-5.105.2534-6.517.5431zm4.417-21.0344c.47-.1086 1.231-.181 2.534-.181 2.824 0 4.562 1.0499 4.562 3.3669 0 2.0636-1.702 3.5118-4.815 3.5118h-2.281zm0 9.9198h2.208c3.077 0 5.576 1.1585 5.576 4.0186 0 3.005-2.571 4.0549-5.431 4.0549-1.014 0-1.774 0-2.353-.1086z"/>
			<path d="m234.613 35.0398h-4.453v10.644c0 .5068-.07 1.0137-.254 1.3757-.434 1.1585-1.592 2.3895-3.403 2.3895-2.353 0-3.294-1.8826-3.294-4.8151v-9.5941h-4.453v10.3543c0 5.7564 2.932 7.6752 6.118 7.6752s4.924-1.8101 5.684-3.0411h.109l.217 2.6429h3.874c-.07-1.4482-.145-3.1859-.145-5.2858z"/>
			<path d="m240.152 31.7453v3.2945h-2.498v3.3308h2.498v8.2907c0 2.317.435 3.9462 1.412 4.9599.833.9051 2.172 1.4481 3.838 1.4481 1.375 0 2.57-.2172 3.222-.4706l-.07-3.367c-.506.1449-.941.1811-1.737.1811-1.702 0-2.281-1.0862-2.281-3.2584v-7.7838h4.236v-3.3308h-4.236v-4.5254z"/>
			<path d="m252.86 31.7453v3.2945h-2.498v3.3308h2.498v8.2907c0 2.317.434 3.9462 1.412 4.9599.832.9051 2.172 1.4481 3.837 1.4481 1.376 0 2.571-.2172 3.222-.4706l-.07-3.367c-.507.1449-.941.1811-1.738.1811-1.701 0-2.281-1.0862-2.281-3.2584v-7.7838h4.236v-3.3308h-4.236v-4.5254z"/>
			<path d="m272.627 34.6416c-5.322 0-9.123 3.548-9.123 9.3406 0 5.684 3.873 9.0871 8.833 9.0871 4.49 0 9.051-2.8963 9.051-9.3767 0-5.3582-3.512-9.051-8.761-9.051zm-.109 3.2221c3.041 0 4.272 3.186 4.272 5.9375 0 3.5841-1.774 6.046-4.308 6.046-2.679 0-4.381-2.5705-4.381-5.9736 0-2.9325 1.268-6.0099 4.417-6.0099z"/>
			<path d="m285.045 52.6711h4.453v-10.3905c0-.5068.07-1.0499.217-1.4119.471-1.3396 1.702-2.6067 3.476-2.6067 2.425 0 3.367 1.9188 3.367 4.4531v9.956h4.453v-10.4629c0-5.5754-3.186-7.5666-6.264-7.5666-2.932 0-4.851 1.6654-5.647 3.0411h-.109l-.217-2.6429h-3.874c.07 1.5206.145 3.2222.145 5.2496z"/>
			<path d="m77.8509 52.5987c1.1585.1448 3.0049.3258 5.4667.3258 4.4893 0 7.3494-.7603 9.0872-2.2446 1.3757-1.1947 2.317-2.8963 2.317-5.0685 0-3.3308-2.3532-5.3582-4.9237-6.0099v-.1086c2.6429-.9775 4.0549-3.0049 4.0549-5.2495 0-2.0999-1.0138-3.6928-2.5343-4.5979-1.6292-1.1223-3.6928-1.5568-6.9511-1.5568-2.5343 0-5.1048.2534-6.5167.5431zm4.4168-21.0344c.4707-.1086 1.231-.181 2.5343-.181 2.8239 0 4.5617 1.0499 4.5617 3.3669 0 2.0636-1.7016 3.5118-4.8151 3.5118h-2.2809zm0 9.9198h2.2085c3.0773 0 5.5754 1.1585 5.5754 4.0186 0 3.005-2.5705 4.0549-5.4306 4.0549-1.0137 0-1.774 0-2.3533-.1086z"/>
			<path d="m102.976 52.6711v-17.6313h-4.4528v17.6313zm-2.208-24.9806c-1.4845 0-2.4982 1.0499-2.4982 2.4256 0 1.3034.9775 2.3895 2.4622 2.3895 1.556 0 2.534-1.0861 2.534-2.3895-.04-1.3757-.978-2.4256-2.498-2.4256z"/>
			<path d="m123.757 40.1084c0-2.4257.07-3.8738.145-5.0686h-3.874l-.181 2.3533h-.07c-.833-1.4482-2.39-2.7515-5.105-2.7515-4.236 0-8.001 3.5118-8.001 9.3044 0 4.9961 3.114 8.6165 7.494 8.6165 2.353 0 4.127-1.0499 5.141-2.6067h.07v1.5206c0 3.8014-2.173 5.3219-5.069 5.3219-2.136 0-4.019-.6878-5.141-1.3395l-.977 3.3669c1.52.9051 3.91 1.412 6.154 1.412 2.426 0 4.996-.5069 6.807-2.136 1.846-1.6654 2.606-4.3083 2.606-8.0011zm-4.453 4.8513c0 .5068-.04 1.1223-.181 1.5568-.507 1.6291-1.955 2.7152-3.62 2.7152-2.788 0-4.309-2.4256-4.309-5.4305 0-3.5842 1.847-5.7564 4.345-5.7564 1.883 0 3.15 1.2309 3.62 2.8601.109.362.145.7602.145 1.1947z"/>
			<path d="m128.717 52.5987c1.159.1448 3.005.3258 5.467.3258 4.489 0 7.349-.7603 9.087-2.2446 1.376-1.1947 2.317-2.8963 2.317-5.0685 0-3.3308-2.353-5.3582-4.924-6.0099v-.1086c2.643-.9775 4.055-3.0049 4.055-5.2495 0-2.0999-1.014-3.6928-2.534-4.5979-1.629-1.1223-3.693-1.5568-6.951-1.5568-2.534 0-5.105.2534-6.517.5431zm4.417-21.0344c.471-.1086 1.231-.181 2.534-.181 2.824 0 4.562 1.0499 4.562 3.3669 0 2.0636-1.702 3.5118-4.815 3.5118h-2.281zm0 9.9198h2.208c3.078 0 5.576 1.1585 5.576 4.0186 0 3.005-2.571 4.0549-5.431 4.0549-1.013 0-1.774 0-2.353-.1086z"/>
			<path d="m149.389 52.6711h4.453v-25.7047h-4.453z"/>
			<path d="m174.479 35.0398h-4.453v10.644c0 .5068-.07 1.0137-.254 1.3757-.434 1.1585-1.593 2.3895-3.403 2.3895-2.353 0-3.295-1.8826-3.295-4.8151v-9.5941h-4.453v10.3543c0 5.7564 2.933 7.6752 6.119 7.6752s4.924-1.8101 5.684-3.0411h.108l.218 2.6429h3.873c-.07-1.4482-.144-3.1859-.144-5.2858z"/>
			<path d="m194.246 45.1045c.07-.3982.145-1.0499.145-1.8826 0-3.8738-1.883-8.5803-7.603-8.5803-5.648 0-8.617 4.5979-8.617 9.4854 0 5.3944 3.367 8.9061 9.088 8.9061 2.534 0 4.634-.4706 6.154-1.1223l-.652-3.0411c-1.375.4707-2.823.7965-4.887.7965-2.86 0-5.322-1.3758-5.431-4.5617zm-11.803-3.1135c.181-1.8102 1.34-4.3083 4.091-4.3083 2.969 0 3.693 2.6791 3.657 4.3083z"/>
			<path d="m198.156 52.5987c1.158.1448 3.005.3258 5.467.3258 4.489 0 7.349-.7603 9.087-2.2446 1.375-1.1947 2.317-2.8963 2.317-5.0685 0-3.3308-2.353-5.3582-4.924-6.0099v-.1086c2.643-.9775 4.055-3.0049 4.055-5.2495 0-2.0999-1.014-3.6928-2.534-4.5979-1.63-1.1223-3.693-1.5568-6.951-1.5568-2.535 0-5.105.2534-6.517.5431zm4.417-21.0344c.47-.1086 1.231-.181 2.534-.181 2.824 0 4.562 1.0499 4.562 3.3669 0 2.0636-1.702 3.5118-4.815 3.5118h-2.281zm0 9.9198h2.208c3.077 0 5.576 1.1585 5.576 4.0186 0 3.005-2.571 4.0549-5.431 4.0549-1.014 0-1.774 0-2.353-.1086z"/>
			<path d="m234.613 35.0398h-4.453v10.644c0 .5068-.07 1.0137-.254 1.3757-.434 1.1585-1.592 2.3895-3.403 2.3895-2.353 0-3.294-1.8826-3.294-4.8151v-9.5941h-4.453v10.3543c0 5.7564 2.932 7.6752 6.118 7.6752s4.924-1.8101 5.684-3.0411h.109l.217 2.6429h3.874c-.07-1.4482-.145-3.1859-.145-5.2858z"/>
			<path d="m240.152 31.7453v3.2945h-2.498v3.3308h2.498v8.2907c0 2.317.435 3.9462 1.412 4.9599.833.9051 2.172 1.4481 3.838 1.4481 1.375 0 2.57-.2172 3.222-.4706l-.07-3.367c-.506.1449-.941.1811-1.737.1811-1.702 0-2.281-1.0862-2.281-3.2584v-7.7838h4.236v-3.3308h-4.236v-4.5254z"/>
			<path d="m252.86 31.7453v3.2945h-2.498v3.3308h2.498v8.2907c0 2.317.434 3.9462 1.412 4.9599.832.9051 2.172 1.4481 3.837 1.4481 1.376 0 2.571-.2172 3.222-.4706l-.07-3.367c-.507.1449-.941.1811-1.738.1811-1.701 0-2.281-1.0862-2.281-3.2584v-7.7838h4.236v-3.3308h-4.236v-4.5254z"/>
			<path d="m272.627 34.6416c-5.322 0-9.123 3.548-9.123 9.3406 0 5.684 3.873 9.0871 8.833 9.0871 4.49 0 9.051-2.8963 9.051-9.3767 0-5.3582-3.512-9.051-8.761-9.051zm-.109 3.2221c3.041 0 4.272 3.186 4.272 5.9375 0 3.5841-1.774 6.046-4.308 6.046-2.679 0-4.381-2.5705-4.381-5.9736 0-2.9325 1.268-6.0099 4.417-6.0099z"/>
			<path d="m285.045 52.6711h4.453v-10.3905c0-.5068.07-1.0499.217-1.4119.471-1.3396 1.702-2.6067 3.476-2.6067 2.425 0 3.367 1.9188 3.367 4.4531v9.956h4.453v-10.4629c0-5.5754-3.186-7.5666-6.264-7.5666-2.932 0-4.851 1.6654-5.647 3.0411h-.109l-.217-2.6429h-3.874c.07 1.5206.145 3.2222.145 5.2496z"/>
		</g>
		<g id="TM">
			<path d="m313.278 36.9152h.525v-2.4363h.828v-.4394h-2.172v.4394h.819z"/>
			<path d="m317.438 36.9152h.512l-.166-2.8757h-.683l-.397 1.152c-.11.337-.209.6912-.285 1.0026h-.01c-.07-.32-.162-.6613-.265-.9984l-.375-1.1562h-.691l-.192 2.8757h.49l.06-1.1563c.02-.3925.04-.849.05-1.2245.08.3584.179.7509.29 1.1179l.384 1.2288h.401l.423-1.2459c.128-.3627.247-.7509.341-1.1008h.01c0 .3883.02.8363.03 1.2075z"/>
		</g>
	</g>
</svg>